<?xml version="1.0" encoding="iso-8859-1"?>
<!-- Uploaded to: SVG Repo, www.svgrepo.com, Generator: SVG Repo Mixer Tools -->
<svg height="800px" width="800px" version="1.1" id="Layer_1" xmlns="http://www.w3.org/2000/svg" xmlns:xlink="http://www.w3.org/1999/xlink" 
	 viewBox="0 0 512.001 512.001" xml:space="preserve">
<path style="fill:#CF8F3D;" d="M57.009,128.389h41.967c2.97,0,5.378-2.408,5.378-5.378V40.508c0-17.549,14.342-31.903,31.878-31.903
	l0,0c17.531,0,31.874,14.356,31.874,31.903v82.503c0,2.97,2.408,5.378,5.378,5.378h36.589c2.97,0,5.378,2.407,5.378,5.378v244.465
	c0,2.971-2.408,5.378-5.378,5.378h-36.589c-2.97,0-5.378,2.408-5.378,5.378v82.504c0,17.547-14.344,31.903-31.874,31.903l0,0
	c-17.535,0-31.878-14.355-31.878-31.903v-82.504c0-2.97-2.408-5.378-5.378-5.378H62.387c-2.97,0-5.378-2.407-5.378-5.378V128.389
	L57.009,128.389z"/>
<path style="fill:#B76700;" d="M128.001,502.304c-13.578-3.656-23.647-16.111-23.647-30.811v-82.504c0-2.97-2.408-5.378-5.378-5.378
	H62.387c-2.971,0-5.378-2.408-5.378-5.378V128.389h41.967c2.97,0,5.378-2.408,5.378-5.378V40.508
	c0-14.702,10.07-27.156,23.647-30.811V502.304z"/>
<path style="fill:#9E9E9E;" d="M454.992,8.605v107.851c0,43.604-35.651,79.286-79.223,79.286h-0.005
	c-43.567,0-79.218-35.679-79.218-79.286V8.605H454.992L454.992,8.605z"/>
<path style="fill:#C13421;" d="M407.643,413.157v18.687v33.418c0,17.547-14.344,31.902-31.874,31.902l0,0
	c-17.54,0-31.878-14.355-31.878-31.902v-33.418v-18.687v-33.416c0-17.549,14.338-31.904,31.878-31.904l0,0
	c17.531,0,31.874,14.355,31.874,31.904V413.157L407.643,413.157z"/>
<path style="fill:#FF4328;" d="M407.643,379.743v33.416v18.687v33.418c0,17.547-14.344,31.902-31.874,31.902
	c-0.001,0-0.002,0-0.002,0V347.838c0.001,0,0.002,0,0.002,0C393.299,347.838,407.643,362.194,407.643,379.743z"/>
<path d="M210.072,119.783H176.71V40.508C176.71,18.172,158.552,0,136.232,0c-22.324,0-40.485,18.172-40.485,40.508v79.276H57.009
	c-4.752,0-8.605,3.853-8.605,8.605v249.843c0,7.71,6.273,13.983,13.983,13.983h33.362v79.277c0,22.337,18.161,40.508,40.485,40.508
	c22.319,0,40.478-18.172,40.478-40.508v-79.277h33.362c7.71,0,13.983-6.273,13.983-13.983V133.766
	C224.055,126.056,217.782,119.783,210.072,119.783z M206.845,375.005h-33.362c-7.71,0-13.983,6.273-13.983,13.983v82.504
	c0,12.846-10.438,23.298-23.268,23.298c-12.833,0-23.274-10.451-23.274-23.298v-82.504c0-7.71-6.273-13.983-13.983-13.983H65.614
	V136.993h33.362c7.71,0,13.983-6.273,13.983-13.983V40.508c0-12.846,10.441-23.298,23.274-23.298
	c12.83,0,23.268,10.451,23.268,23.298v82.503c0,7.71,6.273,13.983,13.983,13.983h33.362v238.01H206.845z M454.992,0H296.545
	c-4.752,0-8.605,3.853-8.605,8.605v107.851c0,45.56,34.821,83.127,79.229,87.465c0,0.035-0.005,0.069-0.005,0.104v135.529
	c0,0.203,0.016,0.402,0.031,0.601c-18.218,3.947-31.911,20.193-31.911,39.586v85.52c0,22.335,18.161,40.507,40.483,40.507
	c22.32,0,40.479-18.171,40.479-40.507v-85.52c0-19.393-13.69-35.639-31.905-39.586c0.015-0.199,0.031-0.398,0.031-0.601V204.026
	c0-0.035-0.005-0.07-0.005-0.105c44.407-4.339,79.23-41.905,79.23-87.464V8.605C463.597,3.853,459.744,0,454.992,0z
	 M399.037,379.743v85.52c0,12.846-10.438,23.297-23.269,23.297c-12.833,0-23.273-10.451-23.273-23.297v-85.52
	c0-12.847,10.44-23.299,23.273-23.299C388.599,356.442,399.037,366.895,399.037,379.743z M446.387,116.456
	c0,38.973-31.679,70.681-70.618,70.681h-0.004c-38.936,0-70.613-31.707-70.613-70.681V17.21h141.236V116.456z M390.91,117.853
	V56.808c0-4.752,3.853-8.605,8.605-8.605c4.753,0,8.605,3.853,8.605,8.605v61.044c0,4.752-3.852,8.605-8.605,8.605
	C394.763,126.458,390.91,122.606,390.91,117.853z M343.412,117.853V56.808c0-4.752,3.853-8.605,8.605-8.605
	c4.752,0,8.605,3.853,8.605,8.605v61.044c0,4.752-3.853,8.605-8.605,8.605C347.265,126.458,343.412,122.606,343.412,117.853z
	 M168.106,172.733c4.753,0,8.605,3.853,8.605,8.605v149.324c0,4.752-3.852,8.605-8.605,8.605c-4.752,0-8.605-3.853-8.605-8.605
	V181.338C159.501,176.586,163.353,172.733,168.106,172.733z"/>
</svg>