<?xml version="1.0" encoding="iso-8859-1"?>
<!-- Uploaded to: SVG Repo, www.svgrepo.com, Generator: SVG Repo Mixer Tools -->
<!DOCTYPE svg PUBLIC "-//W3C//DTD SVG 1.1//EN" "http://www.w3.org/Graphics/SVG/1.1/DTD/svg11.dtd">
<svg height="800px" width="800px" version="1.1" id="Capa_1" xmlns="http://www.w3.org/2000/svg" xmlns:xlink="http://www.w3.org/1999/xlink" 
	 viewBox="0 0 260.925 260.925" xml:space="preserve">
<g>
	<path style="fill:#1D1D1B;" d="M258.969,121.2c-30.674,0.119-61.345,0.465-92.015,0.804c0.314-0.488,0.337-1.111-0.263-1.604
		c-10.018-8.219-19.357-17.081-28.297-26.32c14.39-11.537,28.392-23.656,40.184-37.897c10.923-13.191,24.861-22.726,35.772-35.618
		c1.452-1.716-0.976-4.208-2.495-2.495c-0.02,0.023-0.043,0.045-0.063,0.067c-3.362-4.761-6.737-9.512-10.118-14.259
		c-0.712-1-2.229-1.447-3.172-0.409c-23.779,26.191-48.136,51.948-70.974,78.971C104.874,57.565,84.153,30.846,60.44,6.891
		c-0.046-1.533-2.042-2.876-3.462-1.468c-5.199,5.157-11.133,9.379-16.556,14.261c-0.881,0.793-0.231,1.838,0.667,2.054
		c-0.138,0.462-0.049,1.008,0.438,1.373c27.874,20.869,51.534,46.426,76.819,70.113c-0.314-0.009-0.635,0.108-0.904,0.414
		c-8.3,9.436-15.635,19.456-24.489,28.469c-30.292-0.5-60.889-1.103-90.516,2.166c-0.827-0.16-1.829,0.313-1.939,1.416
		c-7.136,71.356,63.765,116.563,127.698,116.266c13.839-0.064,28.55-1.513,42.86-4.771c0.007,0.043-0.006,0.082,0.005,0.125
		c5.09,21.076-29.27,16.15-37.989,16.055c-10.748-0.118-43.899,3.648-43.091-15.249c0.057-1.329-2.099-1.659-2.355-0.318
		c-4.857,25.446,37.123,19.596,51.396,19.833c13.934,0.232,45.016,1.828,35.55-21.308c17.442-4.361,34.131-11.471,47.71-22.192
		c27.279-21.539,35.157-55.823,37.074-88.926C261.558,124.771,261.456,121.191,258.969,121.2z M169.43,41.25
		c6.384-6.987,12.768-13.973,19.154-20.958c1.662-1.819,6.215-8.796,8.514-9.314c6.183-1.394,8.279,5.312,11.331,9.683
		c0.154,0.221,0.342,0.369,0.531,0.507c-10.654,11.213-22.89,20.31-32.937,32.458c-11.813,14.284-25.835,26.094-39.765,38.207
		c-2.367-2.479-4.682-5.008-7.001-7.534C143.02,70.291,156.185,55.748,169.43,41.25z M42.86,21.193
		c6.196-2.924,11.582-7.603,16.44-12.368c30.381,39.889,65.721,81.946,104.867,113.209c-2.277,0.025-4.554,0.047-6.831,0.073
		c-8.967-6.626-17.41-13.876-25.602-21.419c0.144-0.895-0.675-1.83-1.559-1.435C101.511,72.618,75.92,42.374,42.86,21.193z
		 M152.223,122.161c-7.207,0.079-14.414,0.162-21.621,0.23c-7.182,0.067-14.425,0.017-21.689-0.065
		c3.168-2.179,6.249-4.482,9.189-6.992c3.987-3.405,8.595-7.182,11.81-11.563C137.113,110.169,144.489,116.367,152.223,122.161z
		 M119.535,95.253c0.147-0.261,0.169-0.528,0.135-0.784c2.55,2.376,5.118,4.733,7.706,7.065c-3.481,3.202-6.569,6.957-10.07,10.123
		c-2.676,2.421-5.465,4.693-8.319,6.901c-1.079,0.834-2.157,1.676-3.252,2.488c-0.554,0.415-1.12,0.813-1.683,1.215
		c-2.686-0.037-5.362-0.062-8.054-0.106C104.807,114.49,113.836,105.392,119.535,95.253z M219.132,210.531
		c-24.734,19.417-60.004,26.951-90.937,27.07C63.556,237.851,2.684,195.248,3.554,126.381c31.927,2.908,64.892,1.391,97.378,0.393
		c0.341,0.134,0.716,0.162,1.053-0.029l0.002-0.001c9.592-0.291,19.148-0.541,28.614-0.604c41.483-0.275,82.963-0.349,124.445-0.824
		C253.028,157.231,245.504,189.829,219.132,210.531z"/>
	<path style="fill:#1D1D1B;" d="M181.936,229.173c-14.574,0.233-29.166,0.475-43.73,1.106c-0.663,0.029-0.669,1.029,0,1.036
		c14.572,0.143,29.16-0.103,43.73-0.359C183.083,230.936,183.087,229.154,181.936,229.173z"/>
	<path style="fill:#1D1D1B;" d="M204.653,218.299c-16.482,4.401-36.236,2.296-53.128,1.264c-0.52-0.031-0.512,0.764,0,0.806
		c16.298,1.338,37.747,4.714,53.561-0.497C206.076,219.545,205.674,218.027,204.653,218.299z"/>
	<path style="fill:#1D1D1B;" d="M218.67,209.744c-17.317,1.661-34.546,2.744-51.943,3.086c-0.419,0.008-0.417,0.635,0,0.652
		c17.295,0.716,34.714,0.32,51.943-1.36C220.18,211.976,220.196,209.598,218.67,209.744z"/>
	<path style="fill:#1D1D1B;" d="M230.139,198.56c-13.369,0.415-26.525,2.071-39.958,1.797c-0.867-0.018-0.859,1.3,0,1.342
		c13.154,0.649,27.212,1.181,40.19-1.426C231.338,200.08,231.116,198.529,230.139,198.56z"/>
	<path style="fill:#1D1D1B;" d="M240.248,189.82c-11.198-0.213-23.249-0.168-34.34,1.423c-0.529,0.076-0.336,0.82,0.118,0.866
		c11.098,1.137,23.087,0.678,34.222,0.012C241.716,192.034,241.743,189.848,240.248,189.82z"/>
	<path style="fill:#1D1D1B;" d="M244.062,179.072c-12.892-0.038-25.766,0.714-38.67,0.527c-0.631-0.009-0.629,0.957,0,0.978
		c12.812,0.441,25.88,0.977,38.67-0.104C244.945,180.397,244.977,179.075,244.062,179.072z"/>
	<path style="fill:#1D1D1B;" d="M249.634,167.568c-0.45-0.28-0.901-0.561-1.351-0.842c-0.669-0.416-1.247,0.224-1.165,0.847
		c-11.567,0.99-23.17,1.354-34.774,0.94c-0.767-0.028-0.763,1.151,0,1.189c12.275,0.605,24.481,0.6,36.748-0.136
		C250.145,169.503,250.565,168.147,249.634,167.568z"/>
	<path style="fill:#1D1D1B;" d="M251.678,155.907c-10.239,1.172-20.11,2.31-30.44,1.855c-1.041-0.046-1.027,1.54,0,1.61
		c10.133,0.691,20.739,0.638,30.684-1.658C252.912,157.486,252.723,155.787,251.678,155.907z"/>
	<path style="fill:#1D1D1B;" d="M252.295,146.677c-11.787-0.239-23.718,0.427-35.503,0.865c-0.711,0.027-0.719,1.106,0,1.113
		c11.789,0.119,23.73,0.461,35.503-0.098C253.5,148.5,253.511,146.702,252.295,146.677z"/>
	<path style="fill:#1D1D1B;" d="M254.848,135.488c-13.102,1.43-26.203,2.867-39.315,4.223c-0.711,0.074-0.731,1.19,0,1.132
		c13.102-1.037,26.21-1.994,39.315-2.958C256.392,137.772,256.366,135.323,254.848,135.488z"/>
	<path style="fill:#1D1D1B;" d="M256.722,129.432c-13.521,0.655-27.018,1.172-40.558,1.263c-0.853,0.005-0.851,1.296,0,1.323
		c13.509,0.431,27.054,0.471,40.558-0.17C258.27,131.775,258.279,129.356,256.722,129.432z"/>
</g>
</svg>