<?xml version="1.0" encoding="iso-8859-1"?>
<!-- Uploaded to: SVG Repo, www.svgrepo.com, Generator: SVG Repo Mixer Tools -->
<svg height="800px" width="800px" version="1.1" id="Layer_1" xmlns="http://www.w3.org/2000/svg" xmlns:xlink="http://www.w3.org/1999/xlink" 
	 viewBox="0 0 512 512" xml:space="preserve">
<polygon style="fill:#3E3D43;" points="73.422,241.949 73.422,381.49 299.471,512 438.578,431.686 438.578,292.145 212.529,161.635 
	"/>
<g>
	<polygon style="fill:#2E2E30;" points="108.199,240.941 299.471,351.373 403.801,291.137 212.529,180.706 	"/>
	<polygon style="fill:#2E2E30;" points="73.422,241.949 73.422,381.49 299.471,512 299.471,372.459 	"/>
</g>
<polygon style="fill:#1D1D1F;" points="438.578,292.145 438.578,431.686 299.471,512 299.471,372.459 "/>
<polygon style="fill:#FEC377;" points="108.199,198.073 108.199,240.974 177.696,281.098 220.464,256.406 220.464,213.505 
	150.966,173.38 "/>
<polygon style="fill:#FFB657;" points="108.199,198.073 108.199,240.974 177.696,281.098 177.696,238.197 "/>
<polygon style="fill:#FFA834;" points="220.464,213.505 220.464,256.406 177.696,281.098 177.696,238.197 "/>
<path style="fill:#898890;" d="M256.036,283.918v-36.606l0,0c0.006-4.506-2.951-9.012-8.874-12.432
	c-11.843-6.838-31.224-6.838-43.067,0c-5.924,3.42-8.887,7.927-8.889,12.432l0,0v36.606h0.001
	c-0.007,4.506,2.947,9.011,8.864,12.428c11.829,6.83,31.211,6.83,43.067,0C253.067,292.93,256.034,288.424,256.036,283.918
	L256.036,283.918z"/>
<path style="fill:#ACABB1;" d="M204.093,234.88c-11.843,6.838-11.855,18.021-0.025,24.85c11.829,6.83,31.209,6.83,43.067,0
	c11.858-6.83,11.868-18.012,0.025-24.85C235.318,228.042,215.938,228.042,204.093,234.88z"/>
<polygon style="fill:#FEC377;" points="247.306,278.368 247.306,321.269 299.471,351.373 342.239,326.681 342.239,283.78 
	290.073,253.676 "/>
<polygon style="fill:#FFB657;" points="247.306,278.368 247.306,321.269 299.471,351.373 299.471,308.472 "/>
<polygon style="fill:#FFA834;" points="342.239,283.78 342.239,326.681 299.471,351.373 299.471,308.472 "/>
<g>
	<path style="fill:#D8D8DA;" d="M94.67,96.988v-0.004h-0.001c-0.002-0.571-0.376-1.141-1.124-1.576
		c-1.502-0.871-3.961-0.874-5.467-0.004c-0.752,0.435-1.13,1.007-1.13,1.58v145.924c0,0.573,0.375,1.144,1.126,1.579
		c1.504,0.868,3.963,0.869,5.467,0.004c0.754-0.435,1.13-1.008,1.129-1.583C94.67,242.908,94.67,96.989,94.67,96.988z"/>
	<path style="fill:#D8D8DA;" d="M303.332,216.248v-0.004h-0.001c-0.002-0.571-0.376-1.141-1.124-1.576
		c-1.502-0.871-3.961-0.874-5.467-0.004c-0.752,0.435-1.13,1.007-1.13,1.58v145.923c0,0.573,0.375,1.144,1.126,1.578
		c1.504,0.868,3.963,0.869,5.467,0.004c0.754-0.435,1.13-1.008,1.128-1.583C303.332,362.167,303.332,216.249,303.332,216.248z"/>
</g>
<path style="fill:#C6C5CB;" d="M425.051,146.686v-0.004h-0.001c-0.002-0.571-0.376-1.141-1.124-1.576
	c-1.502-0.871-3.961-0.874-5.467-0.004c-0.752,0.435-1.13,1.007-1.13,1.58v145.924c0,0.573,0.375,1.144,1.126,1.578
	c1.504,0.868,3.963,0.869,5.467,0.004c0.754-0.435,1.13-1.008,1.128-1.583C425.051,292.606,425.051,146.687,425.051,146.686z"/>
<polygon style="fill:#CD2A01;" points="73.422,100.392 299.471,230.902 438.578,150.589 438.578,130.51 212.529,0 73.422,80.314 "/>
<polygon style="fill:#AD2201;" points="73.422,80.314 299.471,210.824 438.578,130.51 212.529,0 "/>
<polygon style="fill:#CD2A01;" points="212.529,0 212.529,20.078 73.422,80.314 "/>
<polygon style="fill:#FF3502;" points="73.422,80.314 212.529,20.078 352.569,100.93 299.471,210.824 "/>
<polygon style="fill:#2E2E30;" points="116.24,27.287 116.24,105.237 268.469,193.126 277.901,187.751 277.901,109.627 
	125.975,21.913 "/>
<polygon style="fill:#1D1D1F;" points="268.469,193.126 277.901,187.751 277.901,109.627 268.469,115.003 "/>
<polygon style="fill:#3E3D43;" points="116.24,27.287 125.975,21.913 277.901,109.627 268.469,115.003 "/>
<polygon style="fill:#891D00;" points="352.569,100.93 438.578,130.51 299.471,210.824 "/>
<polygon style="fill:#791900;" points="299.471,210.824 299.471,230.902 438.578,150.589 438.578,130.51 "/>
<path style="fill:#FFFFFF;" d="M154.393,71.965l-0.018,6.091l-14.856-8.577l-0.026,9.216l12.355,7.133l-0.016,5.637l-12.355-7.133
	l-0.042,14.804l-6.049-3.492l0.101-35.749L154.393,71.965 M171.179,111.564c1.462,0.844,2.753,1.244,3.88,1.204
	c1.126-0.036,2.081-0.399,2.856-1.097c0.78-0.69,1.369-1.638,1.764-2.841c0.399-1.201,0.604-2.535,0.608-4.012
	c0.004-1.543-0.206-3.161-0.626-4.85c-0.42-1.684-1.017-3.306-1.785-4.862c-0.773-1.554-1.719-2.982-2.841-4.287
	c-1.122-1.3-2.388-2.36-3.789-3.168c-1.462-0.844-2.764-1.25-3.904-1.224c-1.14,0.032-2.091,0.394-2.856,1.075
	c-0.761,0.691-1.341,1.632-1.74,2.828c-0.399,1.201-0.604,2.535-0.608,4.012c-0.004,1.543,0.196,3.156,0.602,4.837
	s0.993,3.298,1.766,4.852c0.768,1.557,1.719,2.993,2.84,4.315C168.469,109.666,169.745,110.737,171.179,111.564 M171.349,81.503
	c2.253,1.301,4.299,3.014,6.153,5.143c1.855,2.128,3.431,4.426,4.742,6.899c1.309,2.472,2.328,5.011,3.051,7.61
	c0.727,2.607,1.083,5.032,1.076,7.282c-0.006,2.38-0.39,4.44-1.158,6.162c-0.764,1.73-1.821,3.038-3.169,3.921
	c-1.348,0.888-2.961,1.283-4.832,1.195c-1.875-0.09-3.905-0.769-6.096-2.033c-2.281-1.318-4.347-3.02-6.196-5.113
	c-1.855-2.096-3.442-4.377-4.766-6.836c-1.324-2.464-2.347-4.995-3.074-7.602c-0.722-2.604-1.083-5.049-1.076-7.331
	c0.006-2.38,0.403-4.438,1.182-6.175c0.783-1.736,1.855-3.046,3.217-3.942s2.98-1.3,4.855-1.21
	C167.129,79.565,169.159,80.238,171.349,81.503 M204.308,130.692c1.458,0.841,2.753,1.244,3.88,1.204
	c1.126-0.036,2.076-0.402,2.856-1.097c0.775-0.693,1.365-1.641,1.764-2.841c0.399-1.201,0.599-2.538,0.603-4.016
	c0.004-1.543-0.201-3.159-0.621-4.848c-0.42-1.684-1.017-3.306-1.785-4.862c-0.773-1.554-1.719-2.982-2.845-4.29
	c-1.122-1.3-2.383-2.357-3.784-3.166c-1.462-0.844-2.764-1.25-3.904-1.224c-1.14,0.032-2.095,0.391-2.856,1.075
	c-0.765,0.688-1.345,1.63-1.745,2.824c-0.395,1.203-0.599,2.538-0.603,4.016c-0.004,1.543,0.196,3.156,0.602,4.837
	s0.993,3.298,1.766,4.852c0.768,1.557,1.714,2.991,2.84,4.315C201.599,128.794,202.875,129.864,204.308,130.692 M204.479,100.63
	c2.248,1.298,4.299,3.014,6.154,5.143c1.85,2.126,3.431,4.426,4.742,6.899s2.328,5.011,3.051,7.61
	c0.722,2.604,1.083,5.032,1.076,7.282c-0.006,2.38-0.394,4.438-1.158,6.162c-0.768,1.727-1.827,3.035-3.174,3.917
	c-1.348,0.888-2.957,1.286-4.832,1.196c-1.869-0.088-3.905-0.769-6.096-2.033c-2.277-1.314-4.343-3.017-6.192-5.11
	c-1.855-2.096-3.442-4.377-4.766-6.835c-1.324-2.464-2.352-4.998-3.074-7.602c-0.722-2.604-1.083-5.049-1.076-7.331
	c0.006-2.38,0.399-4.44,1.182-6.175c0.777-1.739,1.851-3.049,3.212-3.946c1.367-0.893,2.985-1.297,4.855-1.21
	C200.258,98.692,202.289,99.365,204.479,100.63 M230.161,145.415l5.258,3.035c1.491,0.861,2.811,1.322,3.97,1.388
	c1.155,0.057,2.119-0.218,2.898-0.827c0.774-0.611,1.373-1.515,1.787-2.723c0.409-1.211,0.619-2.653,0.623-4.332
	c0.005-1.713-0.195-3.407-0.597-5.086c-0.405-1.681-1.002-3.271-1.79-4.767c-0.783-1.493-1.752-2.859-2.908-4.096
	c-1.15-1.24-2.456-2.278-3.917-3.122l-5.258-3.035L230.161,145.415 M235.504,118.794c2.543,1.468,4.766,3.224,6.678,5.269
	c1.912,2.042,3.509,4.24,4.79,6.598c1.277,2.349,2.238,4.795,2.875,7.333c0.636,2.538,0.95,5.027,0.943,7.478
	c-0.007,2.72-0.372,4.971-1.093,6.758c-0.725,1.785-1.76,3.068-3.107,3.853c-1.348,0.79-2.965,1.062-4.854,0.832
	c-1.884-0.232-3.995-1.024-6.333-2.374l-11.307-6.528l0.101-35.749L235.504,118.794"/>
</svg>