<!DOCTYPE svg PUBLIC "-//W3C//DTD SVG 1.1//EN" "http://www.w3.org/Graphics/SVG/1.1/DTD/svg11.dtd">
<!-- Uploaded to: SVG Repo, www.svgrepo.com, Transformed by: SVG Repo Mixer Tools -->
<svg fill="#FFFFFF" version="1.1" id="Capa_1" xmlns="http://www.w3.org/2000/svg" xmlns:xlink="http://www.w3.org/1999/xlink" width="800px" height="800px" viewBox="0 0 193.642 193.642" xml:space="preserve" stroke="#FFFFFF">
<g id="SVGRepo_bgCarrier" stroke-width="0"/>
<g id="SVGRepo_tracerCarrier" stroke-linecap="round" stroke-linejoin="round"/>
<g id="SVGRepo_iconCarrier"> <g> <path d="M192.41,46.954c-10.25-48.068-79.868-38.473-106.823-10.7C66.048,19.013,36.964,3.743,16.675,12.891 C1.912,19.547-1.916,38.967,0.818,53.638c4.309,23.121,25.211,34.421,46.448,39.143c4.992,20.606,6.011,42.011,5.587,63.167 c-0.692,0.517-1.211,1.286-1.267,2.2c-2.176,36.091,55.839,27.568,72.493,11.643c0.162-0.155,0.277-0.319,0.413-0.479 c0.907,1.438,3.72,1.456,4.116-0.563c4.345-22.156,3.193-45.188,8.794-67.032c0.202,0.177,0.404,0.353,0.65,0.509 C175.796,126.106,199.43,79.874,192.41,46.954z M81.1,173.341c-3.481-0.452-6.83-1.395-9.948-2.797 c0.24-0.495,0.019-1.19-0.722-1.281c-7.879-0.965-4.313-7.531-1.467-12.154c1.285,0.712,2.593,1.371,3.927,1.96 c0.287,3.192,0.916,6.326,2.029,9.498c0.662,1.887,3.587,1.132,3.024-0.834c-0.686-2.395-1.041-4.787-1.282-7.19 c1.547,0.536,3.11,1.019,4.699,1.402C80.604,165.623,80.794,169.592,81.1,173.341z M83.817,173.661 c0.442-3.662,1.087-7.276,1.658-10.902c0.973,0.151,1.945,0.308,2.925,0.406c0.018,3.5,0.251,7.032,0.415,10.514 C87.139,173.771,85.47,173.761,83.817,173.661z M92.065,173.38c0.16-3.314,0.37-6.67,0.396-10c2.684,0.059,5.375-0.013,8.051-0.354 c0.03,0.564,0.07,1.139,0.099,1.738c0.103,2.21,0.206,4.42,0.31,6.631C98.033,172.342,95.055,172.998,92.065,173.38z M104.004,170.245c0.071-1.52,0.143-3.038,0.213-4.558c0.053-1.114,0.191-2.225,0.191-3.313c2.036-0.411,4.057-0.92,6.046-1.562 c0.086,0.998,0.146,2.003,0.423,2.977c0.239,0.84,0.67,1.586,1.178,2.282C109.545,167.723,106.827,169.101,104.004,170.245z M124.572,163.324c-1.708-2.178-5.073-3.212-7.773-0.815c-0.54,0.479-1.134,0.903-1.702,1.354 c-0.645-1.388-0.732-3.124-0.452-4.593c3.611-1.498,7.103-3.349,10.363-5.629C124.916,156.862,124.786,160.09,124.572,163.324z M142.832,94.049c-1.679-1.084-3.312-0.923-4.583-0.117c-1.744-2.688-6.81-2.992-8.001,1.048 c-5.09,17.26-4.832,34.545-5.099,52.004c-0.695-0.171-1.488-0.108-2.337,0.377c-10.733,6.141-21.231,9.336-31.649,9.146 c-0.421-0.176-0.894-0.199-1.327-0.057c-4.567-0.211-9.121-1.089-13.673-2.651c-0.035-0.551-0.065-1.099-0.105-1.652 c-0.154-2.096-3.103-2.097-3.255,0c-0.009,0.123-0.002,0.24-0.01,0.362c-3.76-1.579-7.521-3.622-11.29-6.202 c-2.029-1.388-4.284,1.682-2.582,3.346c2.004,1.957,4.146,3.681,6.386,5.202c-1.884,2.551-3.526,5.631-3.818,8.734 c-1.781-1.978-3.343-4.252-4.61-6.875c-0.096-0.2-0.23-0.33-0.351-0.485c2.62-22.707,3.056-44.642-2.565-67.07 c-0.867-3.461-5.112-3.199-6.646-0.891C28.89,80.594,9.708,70.39,8.432,48.128c-0.895-15.629,4.737-29.653,22.002-29.207 c24.441,0.63,50.757,21.781,65.218,39.991c2.787,3.51,8.641-1.08,6.181-4.769c-3.104-4.653-7.586-9.812-12.977-14.913 c25.503-16.506,73.906-29.771,91.559,1.943C194.255,66.04,175.376,115.062,142.832,94.049z"/> </g> </g>
</svg>